<?xml version="1.0" encoding="UTF-8"?>
<!-- Generator: Adobe Illustrator 18.1.1, SVG Export Plug-In . SVG Version: 6.00 Build 0)  -->
<svg version="1.1" id="Layer_1" xmlns="http://www.w3.org/2000/svg" xmlns:xlink="http://www.w3.org/1999/xlink" x="0px" y="0px" viewBox="0 0 103 20" enable-background="new 0 0 103 20" xml:space="preserve">
<g>
	<path d="M28.5,19.7c-2.6,0-5-0.8-6.9-2.5c-2.2-1.9-3-4.5-3-7.3c0-2.4,0.6-4.5,2.2-6.3c1.4-1.6,3.2-2.6,5.3-3   c2.6-0.6,5.2-0.2,7.5,1.1c2.9,1.7,4.4,4.3,4.6,7.7c0.2,3-0.5,5.6-2.7,7.7C33.6,18.9,31.2,19.7,28.5,19.7 M28.6,5   c-2.2,0.1-3.8,1.2-4.4,3.2c-0.4,1.2-0.3,2.4,0,3.6c0.5,1.8,1.7,2.8,3.5,3.1c1.8,0.3,3.4-0.3,4.3-1.9c1.1-1.8,1.1-3.7,0.2-5.6   C31.6,5.8,30.2,5.1,28.6,5"/>
	<path d="M93.8,8.3c0-0.5,0.1-1.1,0-1.6c-0.1-0.9-0.8-1.4-1.6-1.7c-1.4-0.5-2.9-0.5-4.3-0.4c-1.4,0.1-2.7,0.4-4,1.1   c-0.2-1.3-0.5-2.6-0.7-3.8c1.1-0.6,2.2-0.9,3.4-1.1c2.5-0.4,4.9-0.5,7.4,0.1c2.6,0.7,4.4,2.1,4.9,4.9C99,6.4,99,7.1,99,7.7   c0,2,0,4.1,0,6.1c0,0.3,0,0.5,0,0.8c0.1,1.4,0.2,1.6,1.7,1.8v2.9c-1.4,0.4-2.9,0.6-4.4-0.1c-0.8-0.4-1.2-1.1-1.4-1.9   c0-0.2,0-0.3-0.1-0.6c-1.8,2.5-4.3,3.2-7.1,3c-3.1-0.2-5.5-2.3-5.9-4.7c-0.7-4,1.3-7,5.3-7.6C89.8,7,90.5,7.1,93.8,8.3 M93.7,11.7   c-0.8-0.6-1.8-0.9-2.8-1c-1-0.1-2.1-0.1-3,0.6C87.1,12,86.8,13,87.1,14c0.2,0.8,1,1.4,2,1.5c0.9,0.1,1.8-0.1,2.7-0.4   C93.3,14.5,93.9,13.4,93.7,11.7"/>
	<path d="M70.1,11.8c-1,0.1-1.9,0.1-2.8,0.2v7.3h-5.3V0.9h5.2v6.8c1.2,0,2.3,0.1,3.4-0.3c1.4-0.5,2.4-1.4,2.7-2.8   c0.3-1.2,0.5-2.5,0.8-3.8h4.9c0.1,3.8-0.6,7.1-4.3,9.2c0.1,0.3,0.3,0.5,0.4,0.7c1.5,2.5,3,5,4.5,7.5c0.2,0.3,0.3,0.7,0.5,1.1h-5.6   C73,16.8,71.5,14.3,70.1,11.8"/>
	<path d="M52.6,0.8h5.2v18.5h-5.2v-5.9c-1,0.2-1.8,0.5-2.7,0.6c-2.4,0.3-4.6,0-6.6-1.5c-1.5-1.2-2.3-2.9-2.6-4.7   c-0.5-2.3-0.2-4.6-0.2-6.9h5.4c0,0.3,0,0.5,0,0.8c0,1.5,0,3,0.1,4.5c0.1,2,1.6,3.3,3.5,3.3c1.2,0,2-0.2,3.3-1V0.8z"/>
	<polygon points="11.9,19.2 6.7,19.2 6.7,5.6 1.3,5.6 1.3,0.9 17.3,0.9 17.3,5.5 11.9,5.5  "/>
</g>
</svg>