<?xml version="1.0" encoding="UTF-8" standalone="no"?>
<svg width="216px" height="433px" viewBox="0 0 216 433" version="1.1" xmlns="http://www.w3.org/2000/svg" xmlns:xlink="http://www.w3.org/1999/xlink">
    <!-- Generator: Sketch 3.7.1 (28215) - http://www.bohemiancoding.com/sketch -->
    <title>Shape</title>
    <desc>Created with Sketch.</desc>
    <defs>
        <linearGradient x1="-0.156242265%" y1="50.00262%" x2="100.028238%" y2="50.00262%" id="linearGradient-1">
            <stop stop-color="#3F3F3E" offset="0%"/>
            <stop stop-color="#1E1E1D" offset="100%"/>
        </linearGradient>
    </defs>
    <g id="Page-1" stroke="none" stroke-width="1" fill="none" fill-rule="evenodd">
        <g id="dude" fill="#1E1E1D">
            <g id="Page-1">
                <g id="dude">
                    <g id="Group">
                        <path d="M39.2,250.1 L42.2,249.4 L42.7,246.6 L43.8,246.7 C45.9,263.8 47.4,274.8 47.4,285 C47.5,334.4 36.7,381.4 36.2,432.2 L84.5,432.2 C89,420 92.2,404.9 97.9,393.9 C102.6,405 106.2,419.1 108.9,432.2 L159.2,432.2 C156.7,397.3 155.7,373.4 149.4,329.8 C153.2,329.9 155.2,329.2 157.9,328.2 C148.7,298.4 145.2,214.2 154.7,170.1 C156.6,165.1 165.4,142.8 165.4,127.4 C165.4,127.4 166.9,121.7 168.6,115.1 L168.6,115.1 C168.9,114.3 174.2,101.4 178,87.9 C181.6,75.3 183.7,61.9 183.7,61.9 L187.1,51.6 C187.1,51.6 189.7,49 191.9,45.8 C194,42.8 195.6,39.3 195.6,39.3 C195.6,39.3 196.5,38 198.6,36.7 C200,35.8 202.4,35.1 202.4,35.1 L212.9,33.2 C212.9,33.2 216.3,32.6 215.8,30.8 C215.3,29 210.3,29.2 210.3,29.2 C210.3,29.2 198.6,30.5 198,29.8 C197.4,29.1 211.1,19.2 211.1,19.2 C211.1,19.2 214.7,16.2 213.5,14.1 C212.2,12 207.9,15.2 207.9,15.2 C207.9,15.2 194.5,24.3 193.5,24.4 C192.5,24.5 203.2,9.6 203.2,9.6 C203.2,9.6 206.4,5.1 204.7,3.2 C203,1.3 199.8,5.4 199.8,5.4 C199.8,5.4 188.2,19.5 187.7,20.1 C187.1,20.8 186.1,20 185.5,19.1 C184.9,18.4 185.3,17 185.3,17 L187.1,4.8 C187.1,4.8 187.1,1.9 184.8,1.1 C182.3,0.2 181.3,3.4 181.3,3.4 L176.6,21.3 C176.6,21.3 174.2,25.1 171,26.3 C168.5,27.2 165.1,25.4 165.1,25.4 C165.1,25.4 162.8,22.5 160.2,20.7 C158.6,19.6 156.3,19.4 156.3,19.4 C156.3,19.4 152.1,19.1 150.4,21.3 C149.6,22.3 152.6,23.6 152.6,23.6 C152.6,23.6 155.9,25.3 157.8,27.5 C159.1,29 159.2,31.3 159.2,31.3 C159.2,31.3 158.8,32.7 160.8,35.9 C162.2,38.2 166.2,42.5 166.2,42.5 C166.2,42.5 167.4,44.4 167.9,46.4 L167.8,51.3 C167.6,52.2 167.3,52.7 167.3,52.7 L158.5,75.7 C158.5,75.7 155,82.6 151.5,90.8 C147.6,99.8 143.5,110.4 141.6,114 L141.5,114.8 L141.3,115.1 C141.3,115.1 138.5,119.2 135.9,124 C133.3,128.8 125.9,133.7 125.6,134.1 C125.3,134.6 117.3,135.9 112.7,142.1 C108.1,148.3 102.6,149.4 102.6,149.4 L101.3,149.1 C101.3,149.1 99.3,141.7 98.6,139.4 C97.9,137.1 98,135.6 98,135.6 C98,135.6 102.4,131.3 102.3,129.5 C102.2,127.7 101.6,112.7 99.3,109.3 C97.1,105.9 96,101.4 95.6,99.5 C95.2,97.6 93.3,93.2 91.8,91.9 C90.3,90.6 86.6,87.8 86.2,87.1 C85.8,86.4 84.1,83.4 81.9,82.3 C79.8,81.3 80.2,79.8 78.8,78.3 C77.3,76.8 75.8,76.6 75.8,76.6 C75.8,76.6 77.3,77.6 76.5,78.5 L75.9,79.2 L75.7,79.4 C75.3,79.7 72.7,79.1 71.5,79.6 C70.3,80 68.8,80.9 68.8,80.9 C68.8,80.9 67.1,79 64,80 C60.9,81.1 65.5,79.8 65.5,81 C65.5,82.2 64.6,82.2 64.4,82.2 C64.1,82.2 61.8,84.5 60.3,84.4 C58.8,84.3 57,86.3 56.6,86.6 L53.5,86.3 L52.3,85.3 L52.2,85.2 L52.4,86 C52.4,86.6 53.3,86.9 52.5,88.1 C51.7,89.3 50.9,89.8 50.4,91.1 C50,92.4 48.4,94.9 47.8,94.5 C47.3,94.1 46.7,94.1 47.5,93 C48.2,91.9 48.7,91.8 48.7,91.8 C48.7,91.8 46.2,91.4 46.4,94.6 C46.4,94.6 42.6,95.4 42.6,97.1 C42.6,97.1 43.8,95.8 45,96.9 L43.9,97.4 C43.9,97.4 43.4,99.5 43.4,101.1 C43.5,102.7 42.9,101.7 42.5,101.8 C42.2,101.9 40.1,107.5 40.1,109.4 C40.1,110.6 39.7,110.4 39.3,110 C39.4,110.7 39.5,111.6 39.1,111.9 C38.3,112.5 40.4,112.8 40.2,114.9 C40,117 37.8,118.8 37.8,118.8 L39.6,119.1 L39.9,119.9 L40.4,119.7 C40.4,119.7 41.6,123.5 41.7,124.9 C41.8,126.3 42.1,125.2 42.2,124.8 L42.3,124.4 C42.3,124.4 44,128.5 48.6,133.4 C53.2,138.3 62.3,143.9 63,147.1 C63,147.1 65.3,160.2 64.1,162 L59.2,161.9 L58.8,164 C58.8,164 57.7,165.8 56.9,166.6 C56,167.4 53.6,169.5 53.6,169.5 L50.6,171.7 C49.9,172.3 49.2,172.9 48.4,173.4 C40.2,179 31.4,182.3 25.2,189.3 C15.9,199.8 14.2,212.6 7.8,230.2 C9.5,234.4 11.9,234.2 13,238.1 L13.1,238.1 L7.2,275.5 C6,284.7 1.1,296.1 1.5,306.7 C0.1,323.5 1.5,351.1 1.5,351.1 C1.5,351.1 2.4,364.2 3.5,368.8 C4.5,373.5 11.2,380.4 11.2,380.4 L24,384.4 C24,384.4 26,385 26.2,383.2 C26.3,381.4 25.3,380.3 25.3,380.3 C25.3,380.3 25.4,378.8 24.8,378.1 C24.2,377.4 18.2,374.8 18.2,374.8 L16.4,372.8 L14.1,368.3 C14.1,367.9 13.9,362.6 14.7,359.6 C14.7,359.6 18.4,360.2 18.8,361.4 C19,362 21.8,366.1 24.6,366.7 C27.3,367.3 26.8,365.9 26.5,364.8 C25.8,362.3 21.8,357.5 21.5,355.4 C20.9,351.8 19.2,348.4 18.5,347.3 C17.2,345.7 15.5,344.8 15.5,344.8 L14.4,343.7 C14.4,343.7 21.4,319.6 24.8,307.6 C26.9,297.7 28.2,287.2 28.3,283.2 C28.3,283.2 28.4,280.2 29.7,277.8 C33.4,271 39.2,250.1 39.2,250.1" id="Shape"/>
                    </g>
                </g>
            </g>
        </g>
    </g>
</svg>