<?xml version="1.0" encoding="UTF-8"?>
<!-- Generator: Adobe Illustrator 16.0.0, SVG Export Plug-In . SVG Version: 6.00 Build 0)  -->
<svg version="1.2" baseProfile="tiny" xmlns="http://www.w3.org/2000/svg" xmlns:xlink="http://www.w3.org/1999/xlink" x="0px" y="0px" width="199px" height="31px" viewBox="0 0 199 31" xml:space="preserve">
<g id="кнтур_1_">
	<g id="кнтур">
		<path fill-rule="evenodd" fill="#404040" d="M12.495,8.128H9.224l-6.23,7.271H2.933V8.128H0.081v15.625h2.852v-7.396h0.062    l6.564,7.396h3.5l-7.791-7.976L12.495,8.128z M66.168,10.836h5.008v12.917h2.85V10.836h4.849V8.128H66.168V10.836z M61.235,13.813    h-7.096V8.084h-2.853v15.714h2.853v-7.12h7.096v7.075h2.851V8.128h-2.851V13.813z M88.641,19.26    c-0.151,0.528-0.254,0.913-0.304,1.156h-0.091c-0.163-0.639-0.271-1.034-0.32-1.187L83.889,8.262l-2.902-0.134l6.087,15.55    l-1.25,2.953c-0.627,1.5-1.571,2.063-2.829,2.063c-0.446,0-1.317,0.098-1.854-0.085v2.192c0.436,0.132,1.358,0.198,2.008,0.198    c2.313,0,4.107-1.568,5.387-4.795L95.7,8.128h-2.765L88.641,19.26z M106.221,7.807c-2.159,0-3.901,1.41-5.126,3.479l-0.061-0.952    v-2.25h-2.809v22.748h2.809v-9.42h0.061c1.094,1.745,2.651,2.618,4.671,2.618c2.202,0,3.935-0.783,5.204-2.351    c1.267-1.567,1.899-3.033,1.899-5.64c0-2.344-0.563-4.212-1.688-5.606C110.055,9.038,108.229,7.807,106.221,7.807z     M109.028,20.196c-0.856,1.155-2.042,1.734-3.553,1.734c-1.289,0-2.351-0.449-3.187-1.348c-0.839-0.896-1.255-1.989-1.255-3.278    v-1.554c0-1.521,0.439-2.786,1.321-3.797c0.883-1.009,2.05-1.514,3.501-1.514c1.37,0,2.455,0.492,3.255,1.477    c0.803,0.983,1.203,2.342,1.203,4.077C110.314,18.054,109.885,19.039,109.028,20.196z M118.589,21.245    c-0.336-0.343-0.743-0.514-1.225-0.514c-0.47,0-0.87,0.171-1.201,0.514c-0.331,0.341-0.497,0.747-0.497,1.217    s0.166,0.873,0.497,1.209c0.331,0.338,0.731,0.506,1.201,0.506c0.481,0,0.889-0.168,1.225-0.506    c0.337-0.336,0.506-0.739,0.506-1.209S118.926,21.586,118.589,21.245z"/>
	</g>
</g>
<g id="о_1_">
	<g id="о">
		<path fill-rule="evenodd" fill="#1B6EBA" d="M40.808,6.572c-0.931-0.37-2.086-0.436-3.084-0.34    c-0.487-0.918-1.033-1.631-1.709-2.159C34.228,2.676,31.98,1.87,29.57,1.87c-3.635,0-6.916,1.815-8.703,5.338    c-0.333,0.657-0.591,1.603-0.619,2.355c-0.759,0.05-1.628,0.159-2.18,0.528c-2.32,1.551-3.85,4.18-3.85,7.157    c0,4.756,3.899,7.953,8.694,7.953h14.284c5.368,0,9.739-4.332,9.739-9.659C46.936,11.481,44.395,7.998,40.808,6.572z     M36.951,22.329H23.245c-3.357,0-6.089-1.986-6.089-5.247c0-1.844,0.9-3.562,2.354-4.668c0.353-0.268,1.057-0.381,1.722-0.438    c1.315-0.113,1.613,0.281,1.626-1.415c0.005-0.684,0.34-1.43,0.514-1.866c1.009-2.544,3.683-3.922,6.261-3.922    c1.93,0,3.758,0.639,5.124,1.87c0.383,0.346,0.391,1.228,0.453,1.809c0.074,0.699,0.451,0.933,1.45,0.464    c0.562-0.264,1.387-0.3,2.2-0.117c3.032,0.683,5.184,3.502,5.184,6.639C44.042,19.238,40.861,22.329,36.951,22.329z"/>
	</g>
</g>
<g id="эльба_1_">
	<g id="эльба">
		<path fill-rule="evenodd" fill="#1B6EBA" d="M126.395,7.794c-1.469,0-2.746,0.276-3.826,0.827v2.48    c1.07-0.796,2.336-1.195,3.795-1.195c1.51,0,2.722,0.44,3.63,1.319c0.908,0.876,1.422,2.092,1.544,3.642h-6.674v2.144h6.674    c-0.081,1.562-0.579,2.8-1.49,3.713c-0.915,0.914-2.111,1.372-3.593,1.372c-1.528,0-2.887-0.44-4.071-1.318v2.373    c1.175,0.705,2.563,1.057,4.165,1.057c2.318,0,4.162-0.732,5.534-2.196c1.372-1.466,2.061-3.428,2.061-5.888    c0-2.644-0.67-4.691-2.007-6.147C130.798,8.522,128.885,7.794,126.395,7.794z M136.582,21.957c-0.416,0-0.805-0.092-1.161-0.275    v2.158c0.375,0.143,0.826,0.214,1.347,0.214c1.713,0,3.078-1.025,4.096-3.076c1.015-2.052,1.731-5.615,2.151-10.688h3.643v13.55    h2.496V8.162h-8.237C140.271,17.358,138.828,21.957,136.582,21.957z M160.659,14.179h-4.225V8.162h-2.512V23.84h6.949    c1.45,0,2.649-0.438,3.598-1.317c0.949-0.878,1.426-2.071,1.426-3.582c0-1.5-0.474-2.669-1.416-3.506    C163.534,14.598,162.259,14.179,160.659,14.179z M160.198,21.696h-3.764v-5.358h3.732c2.104,0,3.153,0.867,3.153,2.603    C163.32,20.777,162.281,21.696,160.198,21.696z M176.164,8.499c-2.265,0-4.012,0.888-5.236,2.664h-0.06    c0.163-2.021,0.539-3.557,1.124-4.608c0.589-1.051,1.338-1.736,2.252-2.06c0.911-0.321,2.518-0.654,4.813-1.002    c0.93-0.153,1.604-0.382,2.023-0.689V0.445c-0.482,0.285-1.213,0.542-2.192,0.767c-2.468,0.438-4.213,0.821-5.227,1.147    c-1.016,0.327-1.939,0.924-2.771,1.791c-0.83,0.868-1.481,2.161-1.951,3.882c-0.471,1.72-0.705,3.814-0.705,6.284    c0,3.176,0.651,5.616,1.951,7.326c1.303,1.71,3.156,2.564,5.565,2.564c2.235,0,4.015-0.728,5.336-2.181    c1.321-1.456,1.982-3.382,1.982-5.781c0-2.326-0.633-4.199-1.897-5.618C179.906,9.208,178.237,8.499,176.164,8.499z     M179.205,20.524c-0.864,1.047-1.995,1.571-3.392,1.571c-0.768,0-1.447-0.149-2.045-0.445c-0.596-0.296-1.115-0.745-1.554-1.347    c-0.438-0.603-0.776-1.296-1.012-2.082c-0.234-0.786-0.356-1.588-0.366-2.404v-2.175c1.071-1.999,2.659-3,4.76-3    c1.5,0,2.693,0.527,3.577,1.585c0.883,1.055,1.324,2.483,1.324,4.279C180.498,18.14,180.066,19.479,179.205,20.524z     M192.492,7.794c-2.01,0-3.786,0.49-5.326,1.471v2.571c1.519-1.286,3.226-1.93,5.113-1.93c2.155,0,3.232,1.333,3.232,3.996    l-4.704,0.66c-3.448,0.479-5.174,2.184-5.174,5.112c0,1.368,0.442,2.466,1.325,3.293c0.883,0.826,2.104,1.239,3.667,1.239    c2.123,0,3.73-0.938,4.823-2.816h0.063v2.449h2.508V13.643C198.02,9.744,196.179,7.794,192.492,7.794z M195.512,17.47    c0,1.337-0.407,2.442-1.219,3.316c-0.811,0.872-1.841,1.31-3.088,1.31c-0.908,0-1.635-0.245-2.18-0.729    c-0.548-0.485-0.82-1.11-0.82-1.876c0-1.051,0.298-1.783,0.89-2.196c0.592-0.414,1.469-0.702,2.634-0.865l3.783-0.521V17.47z"/>
	</g>
</g>
</svg>