<?xml version="1.0" encoding="UTF-8" standalone="no"?>
<svg width="210px" height="27px" viewBox="0 0 210 27" version="1.1" xmlns="http://www.w3.org/2000/svg" xmlns:xlink="http://www.w3.org/1999/xlink">
    <!-- Generator: Sketch 3.7.1 (28215) - http://www.bohemiancoding.com/sketch -->
    <title>DOCUGURU</title>
    <desc>Created with Sketch.</desc>
    <defs></defs>
    <g id="Page-1" stroke="none" stroke-width="1" fill="none" fill-rule="evenodd">
        <path d="M0.24,23.3 C0.24,24.776 1.464,26 2.94,26 C5.784,26.036 7.44,26.072 7.908,26.072 C12.516,26.072 16.08,24.848 18.6,22.4 C21.084,19.988 22.344,16.892 22.344,13.184 C22.344,9.548 21.192,6.56 18.852,4.22 C16.512,1.88 12.948,0.692 8.196,0.692 C7.296,0.692 5.532,0.728 2.94,0.764 C1.392,0.8 0.24,2.024 0.24,3.5 L0.24,23.3 Z M6,6.2 C6.468,6.128 7.188,6.092 8.124,6.092 C12.984,6.092 16.224,8.684 16.224,13.184 C16.224,17.936 13.128,20.672 8.088,20.672 C7.188,20.672 6.504,20.636 6,20.6 L6,6.2 Z M39.616,26.432 C43.468,26.432 46.672,25.208 49.228,22.76 C51.748,20.312 53.008,17.18 53.008,13.4 C53.008,9.476 51.748,6.308 49.264,3.932 C46.744,1.556 43.54,0.368 39.616,0.368 C35.656,0.368 32.452,1.592 29.968,4.076 C27.484,6.56 26.224,9.692 26.224,13.4 C26.224,17.324 27.484,20.492 30.004,22.868 C32.488,25.244 35.692,26.432 39.616,26.432 L39.616,26.432 Z M39.616,5.768 C41.668,5.768 43.396,6.488 44.8,7.892 C46.204,9.296 46.888,11.132 46.888,13.4 C46.888,15.632 46.24,17.468 44.98,18.872 C43.72,20.312 41.92,21.032 39.616,21.032 C37.6,21.032 35.872,20.312 34.468,18.836 C33.064,17.36 32.344,15.56 32.344,13.4 C32.344,11.132 33.028,9.26 34.396,7.856 C35.764,6.452 37.492,5.768 39.616,5.768 L39.616,5.768 Z M74.456,6.524 C75.428,6.524 76.148,6.092 76.652,5.228 C76.904,4.76 77.012,4.328 77.012,3.86 C77.012,2.888 76.364,2.06 75.104,1.376 C73.808,0.692 72.116,0.368 70.064,0.368 C65.888,0.368 62.648,1.592 60.344,4.04 C58.04,6.488 56.888,9.62 56.888,13.4 C56.888,17.324 58.112,20.456 60.56,22.832 C63.008,25.244 66.176,26.432 70.1,26.432 C72.332,26.432 74.24,26 75.86,25.172 C77.048,24.56 77.624,23.732 77.624,22.688 C77.624,22.292 77.516,21.86 77.3,21.428 C76.868,20.6 76.184,20.168 75.212,20.168 C74.672,20.168 74.096,20.276 73.52,20.528 C72.62,20.852 71.684,21.032 70.64,21.032 C68.372,21.032 66.536,20.312 65.132,18.872 C63.728,17.468 63.008,15.632 63.008,13.4 C63.008,10.988 63.692,9.116 65.024,7.784 C66.356,6.452 68.012,5.768 70.064,5.768 C71.18,5.768 72.152,5.912 73.052,6.236 C73.592,6.416 74.06,6.524 74.456,6.524 L74.456,6.524 Z M88.02,3.14 C88.02,1.664 86.76,0.44 85.14,0.44 C83.52,0.44 82.26,1.664 82.26,3.14 L82.26,15.344 C82.26,18.944 83.268,21.68 85.248,23.588 C87.228,25.496 89.892,26.432 93.24,26.432 C96.192,26.432 98.64,25.532 100.62,23.732 C102.564,21.932 103.536,19.232 103.536,15.596 L103.536,3.14 C103.536,1.664 102.276,0.44 100.656,0.44 C99.036,0.44 97.776,1.664 97.776,3.14 L97.776,14.444 C97.776,18.764 96.552,21.032 93.24,21.032 C89.748,21.032 88.02,18.728 88.02,14.12 L88.02,3.14 Z M108.856,13.4 C108.856,17.396 110.044,20.564 112.42,22.904 C114.796,25.244 118.108,26.432 122.356,26.432 C124.984,26.432 127.468,25.748 129.808,24.38 C131.14,23.588 131.788,22.436 131.788,20.924 L131.788,14.336 C131.788,12.86 130.564,11.636 129.088,11.636 L123.724,11.636 C122.248,11.636 121.024,12.86 121.024,14.336 C121.024,15.812 122.248,17.036 123.724,17.036 L126.388,17.036 L126.388,19.772 C125.776,20.348 123.868,21.032 122.428,21.032 C117.928,21.032 114.976,18.044 114.976,13.4 C114.976,8.396 117.964,5.768 122.32,5.768 C123.436,5.768 124.408,5.912 125.308,6.236 C125.848,6.416 126.316,6.524 126.712,6.524 C127.684,6.524 128.404,6.092 128.908,5.228 C129.16,4.76 129.268,4.328 129.268,3.86 C129.268,2.744 128.548,1.88 127.144,1.268 C125.812,0.656 123.976,0.368 121.636,0.368 C117.784,0.368 114.688,1.592 112.348,4.076 C110.008,6.56 108.856,9.692 108.856,13.4 L108.856,13.4 Z M143.228,3.14 C143.228,1.664 141.968,0.44 140.348,0.44 C138.728,0.44 137.468,1.664 137.468,3.14 L137.468,15.344 C137.468,18.944 138.476,21.68 140.456,23.588 C142.436,25.496 145.1,26.432 148.448,26.432 C151.4,26.432 153.848,25.532 155.828,23.732 C157.772,21.932 158.744,19.232 158.744,15.596 L158.744,3.14 C158.744,1.664 157.484,0.44 155.864,0.44 C154.244,0.44 152.984,1.664 152.984,3.14 L152.984,14.444 C152.984,18.764 151.76,21.032 148.448,21.032 C144.956,21.032 143.228,18.728 143.228,14.12 L143.228,3.14 Z M178.508,16.064 C181.352,14.66 182.756,12.212 182.756,8.792 C182.756,3.788 179.948,0.728 173.432,0.728 C173.288,0.728 169.616,0.764 167.564,0.764 C166.088,0.8 164.864,2.024 164.864,3.5 L164.864,23.66 C164.864,25.136 166.124,26.36 167.744,26.36 C169.364,26.36 170.624,25.136 170.624,23.66 L170.624,17.18 L172.748,17.18 L177.86,24.596 C178.688,25.784 179.624,26.36 180.704,26.36 C183.008,26.468 184.268,23.516 182.54,21.464 L178.508,16.064 Z M171.624,6.2 C173.208,6.164 174.036,6.128 174.144,6.128 C176.484,6.128 177.636,7.028 177.636,8.864 C177.636,10.808 176.34,11.78 173.712,11.78 L171.624,11.78 L171.624,6.2 Z M194.06,3.14 C194.06,1.664 192.8,0.44 191.18,0.44 C189.56,0.44 188.3,1.664 188.3,3.14 L188.3,15.344 C188.3,18.944 189.308,21.68 191.288,23.588 C193.268,25.496 195.932,26.432 199.28,26.432 C202.232,26.432 204.68,25.532 206.66,23.732 C208.604,21.932 209.576,19.232 209.576,15.596 L209.576,3.14 C209.576,1.664 208.316,0.44 206.696,0.44 C205.076,0.44 203.816,1.664 203.816,3.14 L203.816,14.444 C203.816,18.764 202.592,21.032 199.28,21.032 C195.788,21.032 194.06,18.728 194.06,14.12 L194.06,3.14 Z" id="DOCUGURU" fill="#555555"></path>
    </g>
</svg>