<svg xmlns="http://www.w3.org/2000/svg" width="125" height="2">  <path fill="#BDCCD4" fill-rule="evenodd" d="M123 1c0 .56.45 1 1 1s1-.44 1-1c0-.55-.45-1-1-1s-1 .45-1 1zm-7 0c0 .56.45 1 1 1s1-.44 1-1c0-.55-.45-1-1-1s-1 .45-1 1zm-7 0c0 .56.45 1 1 1s1-.44 1-1c0-.55-.45-1-1-1s-1 .45-1 1zm-8 0c0 .56.45 1 1 1s1-.44 1-1c0-.55-.45-1-1-1s-1 .45-1 1zm-7 0c0 .56.45 1 1 1s1-.44 1-1c0-.55-.45-1-1-1s-1 .45-1 1zm-7 0c0 .56.45 1 1 1s1-.44 1-1c0-.55-.45-1-1-1s-1 .45-1 1zm-7 0c0 .56.45 1 1 1s1-.44 1-1c0-.55-.45-1-1-1s-1 .45-1 1zm-8 0c0 .56.45 1 1 1s1-.44 1-1c0-.55-.45-1-1-1s-1 .45-1 1zm-7 0c0 .56.45 1 1 1s1-.44 1-1c0-.55-.45-1-1-1s-1 .45-1 1zm-7 0c0 .56.45 1 1 1s1-.44 1-1c0-.55-.45-1-1-1s-1 .45-1 1zm-7 0c0 .56.45 1 1 1s1-.44 1-1c0-.55-.45-1-1-1s-1 .45-1 1zm-8 0c0 .56.45 1 1 1s1-.44 1-1c0-.55-.45-1-1-1s-1 .45-1 1zm-7 0c0 .56.45 1 1 1s1-.44 1-1c0-.55-.45-1-1-1s-1 .45-1 1zm-7 0c0 .56.45 1 1 1s1-.44 1-1c0-.55-.45-1-1-1s-1 .45-1 1zm-7 0c0 .56.45 1 1 1s1-.44 1-1c0-.55-.45-1-1-1s-1 .45-1 1zm-8 0c0 .56.45 1 1 1s1-.44 1-1c0-.55-.45-1-1-1s-1 .45-1 1zM7 1c0 .56.45 1 1 1s1-.44 1-1c0-.55-.45-1-1-1S7 .45 7 1z"/></svg>