<?xml version="1.0" encoding="UTF-8" standalone="no"?>
<svg width="1971px" height="1132px" viewBox="0 0 1971 1132" version="1.1" xmlns="http://www.w3.org/2000/svg" xmlns:xlink="http://www.w3.org/1999/xlink">
    <!-- Generator: Sketch 3.7.1 (28215) - http://www.bohemiancoding.com/sketch -->
    <title>Layer_1</title>
    <desc>Created with Sketch.</desc>
    <defs></defs>
    <g id="Page-1" stroke="none" stroke-width="1" fill="none" fill-rule="evenodd">
        <g id="book" fill="#2681E2">
            <g id="Layer_1">
                <path d="M995.04,51.94 C995.04,46.4171525 990.562847,41.94 985.04,41.94 C979.517153,41.94 975.04,46.4171525 975.04,51.94 C975.04,57.4628475 979.517153,61.94 985.04,61.94 C990.562847,61.94 995.04,57.4628475 995.04,51.94 L995.04,51.94 Z M979.12,51.94 C979.12,48.6262915 981.806292,45.94 985.12,45.94 C988.433708,45.94 991.12,48.6262915 991.12,51.94 C991.12,55.2537085 988.433708,57.94 985.12,57.94 C981.806292,57.94 979.12,55.2537085 979.12,51.94 L979.12,51.94 Z" id="Shape"></path>
                <path d="M261.33,82.41 L261.33,982.41 C261.33,985.171424 263.568576,987.41 266.33,987.41 L1706.33,987.41 C1709.09142,987.41 1711.33,985.171424 1711.33,982.41 L1711.33,82.41 C1711.33,79.6485763 1709.09142,77.41 1706.33,77.41 L266.33,77.41 C263.568576,77.41 261.33,79.6485763 261.33,82.41 L261.33,82.41 Z M1706.33,982.41 L266.33,982.41 L266.33,82.41 L1706.33,82.41 L1706.33,982.41 L1706.33,982.41 Z" id="Shape"></path>
                <path d="M667.63,1106.23 C665.55,1104.8 659.94,1104.29 655.77,1104.29 L654.26,1104.29 C646.01,1104.53 645.48,1106.35 645.26,1107.23 C644.965891,1108.31921 645.431579,1109.47118 646.4,1110.05 C648.48,1111.48 654.09,1111.99 658.26,1111.99 L659.77,1111.99 C668.02,1111.75 668.55,1109.93 668.77,1109.05 C669.064109,1107.96079 668.598421,1106.80882 667.63,1106.23 L667.63,1106.23 Z" id="Shape"></path>
                <path d="M1306.24,1104.32 L1304.73,1104.32 C1300.56,1104.32 1294.95,1104.83 1292.87,1106.25 C1291.89778,1106.82586 1291.42773,1107.97848 1291.72,1109.07 C1291.98,1109.95 1292.51,1111.77 1300.72,1112.01 L1302.23,1112.01 L1302.23,1112.01 C1306.4,1112.01 1312.01,1111.5 1314.09,1110.07 C1315.05842,1109.49118 1315.52411,1108.33921 1315.23,1107.25 C1315.02,1106.38 1314.48,1104.56 1306.24,1104.32 L1306.24,1104.32 Z" id="Shape"></path>
                <path d="M186.72,1080.7 C185.093383,1075.28258 184.267978,1069.65635 184.27,1064 L184.27,62 C184.27,29.9674845 210.237485,4 242.27,4 L1728.27,4 C1760.30252,4 1786.27,29.9674845 1786.27,62 L1786.27,1064 C1786.27303,1069.65643 1785.4476,1075.2828 1783.82,1080.7 L1787.97,1080.7 C1789.49599,1075.26455 1790.26985,1069.6456 1790.27,1064 L1790.27,62 C1790.23142,27.7743372 1762.49566,0.0385765829 1728.27,1.13686838e-13 L242.27,1.13686838e-13 C208.044337,0.0385765829 180.308577,27.7743372 180.27,62 L180.27,1064 C180.270525,1069.64557 181.044385,1075.26447 182.57,1080.7 L186.72,1080.7 L186.72,1080.7 Z" id="Shape"></path>
                <path d="M1775.39,1080.7 L1778.56,1080.7 C1780.35494,1075.31515 1781.27001,1069.67613 1781.27,1064 L1781.27,62 C1781.23693,32.7426154 1757.52738,9.03306545 1728.27,9 L242.27,9 C213.012615,9.03306545 189.303065,32.7426154 189.27,62 L189.27,1064 C189.269464,1069.67617 190.184551,1075.31527 191.98,1080.7 L195.15,1080.7 C193.241991,1075.33901 192.267862,1069.69041 192.27,1064 L192.27,62 C192.303061,34.3994685 214.669468,12.0330612 242.27,12 L1728.27,12 C1755.87053,12.0330612 1778.23694,34.3994685 1778.27,62 L1778.27,1064 C1778.27174,1069.69037 1777.29763,1075.33891 1775.39,1080.7 L1775.39,1080.7 Z" id="Shape"></path>
                <path d="M1769.27,1065.2 C1769.27,1075.82 1762.78,1080.65 1756.75,1080.65 L1756.4,1080.65 L1756.4,1080.65 L1767.04,1080.65 C1770.66,1077.48 1773.27,1072.37 1773.27,1065.15 L1773.27,62 C1773.24244,37.1586091 1753.11139,17.0275556 1728.27,17 L242.27,17 C217.428609,17.0275556 197.297556,37.1586091 197.27,62 L197.27,1065.2 C197.27,1072.42 199.96,1077.53 203.57,1080.7 L213.65,1080.7 L213.65,1080.7 L213.54,1080.7 C208.8,1080.7 201.27,1076.5 201.27,1065.25 L201.27,62 C201.27,39.3563253 219.626325,21 242.27,21 L1728.27,21 C1750.91367,21 1769.27,39.3563253 1769.27,62 L1769.27,1065.2 L1769.27,1065.2 Z" id="Shape"></path>
                <path d="M1970.12,1089.28 L1970.12,1084.78 C1970.12,1082.57086 1968.32914,1080.78 1966.12,1080.78 L1142.26,1080.78 C1141.35088,1080.78071 1140.46912,1081.09109 1139.76,1081.66 L818.63,1081.66 C817.919553,1081.09468 817.03792,1080.78787 816.13,1080.79 L4,1080.79 C1.790861,1080.79 0,1082.58086 0,1084.79 L0,1088.33 C0.039314568,1090.05425 0.758140802,1091.69318 2,1092.89 L2,1092.89 C3.43,1094.38 7.76,1098.89 38.34,1105.79 C57.34,1110.07 82.51,1114.35 111,1118.19 C175.81,1126.94 246.79,1131.94 305.75,1131.94 L1620.88,1131.94 C1742.35,1131.94 1826.3,1123.32 1875.33,1116.08 C1923.74,1108.94 1961.92,1099.48 1968.44,1093.08 L1968.5,1093.01 L1968.5,1093.01 C1968.58,1092.93 1968.63,1092.85 1968.7,1092.77 L1968.79,1092.66 C1969.64136,1091.73989 1970.11605,1090.53355 1970.12,1089.28 L1970.12,1089.28 Z M1966.12,1089.28 C1966.07187,1089.60824 1965.90456,1089.90726 1965.65,1090.12 L1146.26,1090.12 L1146.26,1084.78 L1966.12,1084.78 L1966.12,1089.28 L1966.12,1089.28 Z M1142.26,1085.66 L1142.26,1090.13 C1140.31,1092.13 1137.17,1093.72 1131.26,1093.72 L829.69,1093.72 C823.83,1093.72 818.09,1092.08 816.14,1090.13 L816.14,1090.13 L816.14,1085.66 L1142.26,1085.66 L1142.26,1085.66 Z M3.99,1084.79 L812.14,1084.79 L812.14,1090.13 L4.88,1090.13 C4.3571972,1089.66879 4.03144559,1089.02445 3.97,1088.33 L3.97,1084.78 L3.99,1084.79 Z M1620.88,1127.94 L305.75,1127.94 C187.56,1127.94 46.63,1108.2 11.99,1094.17 L814.76,1094.17 C818.47,1096.63 824.76,1097.76 829.68,1097.76 L1131.31,1097.76 C1136.59,1097.76 1140.68,1096.58 1143.76,1094.17 L1957.76,1094.17 C1927.88,1105.29 1817.77,1127.94 1620.88,1127.94 L1620.88,1127.94 Z" id="Shape"></path>
            </g>
        </g>
    </g>
</svg>