<?xml version="1.0" encoding="UTF-8" standalone="no"?>
<svg width="369px" height="54px" viewBox="0 0 369 54" version="1.1" xmlns="http://www.w3.org/2000/svg" xmlns:xlink="http://www.w3.org/1999/xlink" xmlns:sketch="http://www.bohemiancoding.com/sketch/ns">
    <!-- Generator: Sketch 3.3.3 (12072) - http://www.bohemiancoding.com/sketch -->
    <title>КЛЕРКСИ</title>
    <desc>Created with Sketch.</desc>
    <defs></defs>
    <g id="Page-1" stroke="none" stroke-width="1" fill="none" fill-rule="evenodd" sketch:type="MSPage">
        <path d="M45.484375,53 L29.7695312,53 L14.5117188,26.9492188 L14.5117188,53 L0.5546875,53 L0.5546875,1.6015625 L14.5117188,1.6015625 L14.5117188,26.4921875 L29.2070312,1.6015625 L44.4648438,1.6015625 L28.609375,26.140625 L45.484375,53 Z M102.492188,53 L88.5351562,53 L88.5351562,12.9570312 L78.7265625,12.9570312 C78.1874973,18.7929979 77.4668014,24.7343448 76.5644531,30.78125 C75.6621049,36.8281552 74.8007854,41.0703003 73.9804688,43.5078125 C73.1601521,45.9453247 72.1230531,47.8847584 70.8691406,49.3261719 C69.6152281,50.7675853 68.0625093,51.8574182 66.2109375,52.5957031 C64.3593657,53.3339881 62.1211069,53.703125 59.4960938,53.703125 C57.5038963,53.703125 55.6875082,53.4453151 54.046875,52.9296875 L54.046875,42.2070312 C55.453132,42.6757836 56.601558,42.9101562 57.4921875,42.9101562 C58.7109436,42.9101562 59.6425749,42.4003957 60.2871094,41.3808594 C60.9316438,40.361323 61.5234348,38.6269654 62.0625,36.1777344 C62.6015652,33.7285034 63.3515577,29.1816738 64.3125,22.5371094 C65.2734423,15.8925449 66.1640584,8.91409906 66.984375,1.6015625 L102.492188,1.6015625 L102.492188,53 Z M149.117188,53 L118.601562,53 L118.601562,1.6015625 L149.117188,1.6015625 L149.117188,12.7460938 L132.488281,12.7460938 L132.488281,20.8320312 L147.886719,20.8320312 L147.886719,31.9765625 L132.488281,31.9765625 L132.488281,41.6796875 L149.117188,41.6796875 L149.117188,53 Z M200.417969,17.9492188 C200.417969,23.691435 198.724626,28.1269375 195.337891,31.2558594 C191.951155,34.3847813 187.140656,35.9492188 180.90625,35.9492188 L177.003906,35.9492188 L177.003906,53 L163.117188,53 L163.117188,1.6015625 L180.90625,1.6015625 C187.39847,1.6015625 192.273421,3.01951707 195.53125,5.85546875 C198.789079,8.69142043 200.417969,12.7226301 200.417969,17.9492188 L200.417969,17.9492188 Z M177.003906,24.6289062 L179.535156,24.6289062 C181.621104,24.6289062 183.279291,24.0429746 184.509766,22.8710938 C185.740241,21.6992129 186.355469,20.0820416 186.355469,18.0195312 C186.355469,14.5507639 184.433613,12.8164062 180.589844,12.8164062 L177.003906,12.8164062 L177.003906,24.6289062 Z M258.539062,53 L242.824219,53 L227.566406,26.9492188 L227.566406,53 L213.609375,53 L213.609375,1.6015625 L227.566406,1.6015625 L227.566406,26.4921875 L242.261719,1.6015625 L257.519531,1.6015625 L241.664062,26.140625 L258.539062,53 Z M290.222656,12.2539062 C286.917952,12.2539062 284.339853,13.6074083 282.488281,16.3144531 C280.636709,19.0214979 279.710938,22.7538825 279.710938,27.5117188 C279.710938,37.4023932 283.472619,42.3476562 290.996094,42.3476562 C293.269543,42.3476562 295.472646,42.0312532 297.605469,41.3984375 C299.738292,40.7656218 301.882802,40.0039107 304.039062,39.1132812 L304.039062,50.8554688 C299.749979,52.7539157 294.898465,53.703125 289.484375,53.703125 C281.726524,53.703125 275.779318,51.4531475 271.642578,46.953125 C267.505839,42.4531025 265.4375,35.9492613 265.4375,27.4414062 C265.4375,22.1210671 266.439443,17.4453327 268.443359,13.4140625 C270.447276,9.38279234 273.330059,6.28321396 277.091797,4.11523438 C280.853534,1.94725479 285.277318,0.86328125 290.363281,0.86328125 C295.917997,0.86328125 301.226537,2.07030043 306.289062,4.484375 L302.035156,15.4179688 C300.136709,14.5273393 298.238291,13.7773468 296.339844,13.1679688 C294.441397,12.5585907 292.402355,12.2539062 290.222656,12.2539062 L290.222656,12.2539062 Z M319.058594,1.6015625 L331.433594,1.6015625 L331.433594,23.6796875 C331.433594,26.0234492 331.246096,30.7109023 330.871094,37.7421875 L331.152344,37.7421875 L351.648438,1.6015625 L368.804688,1.6015625 L368.804688,53 L356.5,53 L356.5,31.484375 C356.5,28.2265462 356.710935,23.351595 357.132812,16.859375 L356.851562,16.859375 L336.179688,53 L319.058594,53 L319.058594,1.6015625 Z" id="КЛЕРКСИ" fill="#6B6B6B" sketch:type="MSShapeGroup"></path>
    </g>
</svg>