<?xml version="1.0" encoding="UTF-8" standalone="no"?>
<svg width="349px" height="53px" viewBox="0 0 349 53" version="1.1" xmlns="http://www.w3.org/2000/svg" xmlns:xlink="http://www.w3.org/1999/xlink" xmlns:sketch="http://www.bohemiancoding.com/sketch/ns">
    <!-- Generator: Sketch 3.3.3 (12072) - http://www.bohemiancoding.com/sketch -->
    <title>КЛЕРКСИ</title>
    <desc>Created with Sketch.</desc>
    <defs></defs>
    <g id="Page-1" stroke="none" stroke-width="1" fill="none" fill-rule="evenodd" sketch:type="MSPage">
        <path d="M12,48.688 C12,49.6000046 11.6760032,50.3799968 11.028,51.028 C10.3799968,51.6760032 9.60000456,52 8.688,52 L3.792,52 C2.87999544,52 2.10000324,51.6760032 1.452,51.028 C0.80399676,50.3799968 0.48,49.6000046 0.48,48.688 L0.48,4.912 C0.48,3.99999544 0.80399676,3.22000324 1.452,2.572 C2.10000324,1.92399676 2.87999544,1.6 3.792,1.6 L8.688,1.6 C9.60000456,1.6 10.3799968,1.92399676 11.028,2.572 C11.6760032,3.22000324 12,3.99999544 12,4.912 L12,23.56 L26.976,3.616 C27.4560024,2.99199688 28.0559964,2.5000018 28.776,2.14 C29.4960036,1.7799982 30.2399962,1.6 31.008,1.6 L35.76,1.6 C36.7200048,1.6 37.4879971,1.91199688 38.064,2.536 C38.6400029,3.16000312 38.928,3.87999592 38.928,4.696 C38.928,5.4160036 38.6880024,6.08799688 38.208,6.712 L23.376,24.856 L39.864,46.744 C40.3440024,47.3680031 40.584,48.0399964 40.584,48.76 C40.584,49.5760041 40.2720031,50.3199966 39.648,50.992 C39.0239969,51.6640034 38.2320048,52 37.272,52 L31.728,52 C30.9599962,52 30.2160036,51.8200018 29.496,51.46 C28.7759964,51.0999982 28.1760024,50.5840034 27.696,49.912 L12,28.024 L12,48.688 Z M95.688,48.688 C95.688,49.6000046 95.3640032,50.3799968 94.716,51.028 C94.0679968,51.6760032 93.2880046,52 92.376,52 L87.48,52 C86.5679954,52 85.7880032,51.6760032 85.14,51.028 C84.4919968,50.3799968 84.168,49.6000046 84.168,48.688 L84.168,12.4 L73.08,12.4 L72,21.904 C71.3279966,27.90403 70.4760052,32.8599804 69.444,36.772 C68.4119948,40.6840196 67.1760072,43.7919885 65.736,46.096 C64.2959928,48.4000115 62.6160096,50.0199953 60.696,50.956 C58.7759904,51.8920047 56.5920122,52.36 54.144,52.36 C53.1839952,52.36 52.404003,52.0720029 51.804,51.496 C51.203997,50.9199971 50.904,50.2240041 50.904,49.408 L50.904,45.088 C50.904,43.9839945 51.0959981,43.132003 51.48,42.532 C51.8640019,41.931997 52.6799938,41.3680026 53.928,40.84 C54.8400046,40.4559981 55.6679963,39.7840048 56.412,38.824 C57.1560037,37.8639952 57.8399969,36.3280106 58.464,34.216 C59.0880031,32.1039894 59.6519975,29.248018 60.156,25.648 C60.6600025,22.047982 61.1279978,17.3920286 61.56,11.68 L62.064,4.912 C62.1600005,3.9519952 62.5319968,3.16000312 63.18,2.536 C63.8280032,1.91199688 64.6319952,1.6 65.592,1.6 L92.376,1.6 C93.2880046,1.6 94.0679968,1.92399676 94.716,2.572 C95.3640032,3.22000324 95.688,3.99999544 95.688,4.912 L95.688,48.688 Z M142.248,48.688 C142.248,49.6000046 141.924003,50.3799968 141.276,51.028 C140.627997,51.6760032 139.848005,52 138.936,52 L114.96,52 C114.047995,52 113.268003,51.6760032 112.62,51.028 C111.971997,50.3799968 111.648,49.6000046 111.648,48.688 L111.648,4.912 C111.648,3.99999544 111.971997,3.22000324 112.62,2.572 C113.268003,1.92399676 114.047995,1.6 114.96,1.6 L138.216,1.6 C139.128005,1.6 139.907997,1.92399676 140.556,2.572 C141.204003,3.22000324 141.528,3.99999544 141.528,4.912 L141.528,9.088 C141.528,10.0000046 141.204003,10.7799968 140.556,11.428 C139.907997,12.0760032 139.128005,12.4 138.216,12.4 L123.168,12.4 L123.168,21.256 L136.056,21.256 C136.968005,21.256 137.747997,21.5799968 138.396,22.228 C139.044003,22.8760032 139.368,23.6559954 139.368,24.568 L139.368,28.744 C139.368,29.6560046 139.044003,30.4359968 138.396,31.084 C137.747997,31.7320032 136.968005,32.056 136.056,32.056 L123.168,32.056 L123.168,41.2 L138.936,41.2 C139.848005,41.2 140.627997,41.5239968 141.276,42.172 C141.924003,42.8200032 142.248,43.5999954 142.248,44.512 L142.248,48.688 Z M171.456,1.456 C175.296019,1.456 178.511987,1.91199544 181.104,2.824 C183.696013,3.73600456 185.783992,4.9719922 187.368,6.532 C188.952008,8.0920078 190.091997,9.87998992 190.788,11.896 C191.484003,13.9120101 191.832,15.9999892 191.832,18.16 C191.832,20.4160113 191.412004,22.5639898 190.572,24.604 C189.731996,26.6440102 188.508008,28.4439922 186.9,30.004 C185.291992,31.5640078 183.336012,32.7999954 181.032,33.712 C178.727988,34.6240046 176.112015,35.08 173.184,35.08 C172.655997,35.08 171.816006,35.0680001 170.664,35.044 C169.511994,35.0199999 168.480005,34.9600005 167.568,34.864 L167.568,48.688 C167.568,49.6000046 167.244003,50.3799968 166.596,51.028 C165.947997,51.6760032 165.168005,52 164.256,52 L159.36,52 C158.447995,52 157.668003,51.6760032 157.02,51.028 C156.371997,50.3799968 156.048,49.6000046 156.048,48.688 L156.048,4.984 C156.048,4.0239952 156.371997,3.22000324 157.02,2.572 C157.668003,1.92399676 158.447995,1.6 159.36,1.6 C160.320005,1.6 161.351994,1.58800012 162.456,1.564 C163.560006,1.53999988 164.663994,1.51600012 165.768,1.492 C166.872006,1.46799988 167.915995,1.456 168.9,1.456 L171.456,1.456 L171.456,1.456 Z M167.568,23.92 C168.384004,24.0160005 169.259995,24.0999996 170.196,24.172 C171.132005,24.2440004 172.007996,24.28 172.824,24.28 C173.592004,24.28 174.371996,24.184001 175.164,23.992 C175.956004,23.799999 176.675997,23.4760023 177.324,23.02 C177.972003,22.5639977 178.511998,21.940004 178.944,21.148 C179.376002,20.355996 179.592,19.3360062 179.592,18.088 C179.592,15.8319887 178.944006,14.2960041 177.648,13.48 C176.351994,12.6639959 174.67201,12.256 172.608,12.256 C171.839996,12.256 171.108003,12.2679999 170.412,12.292 C169.715997,12.3160001 168.768006,12.3519998 167.568,12.4 L167.568,23.92 Z M215.712,48.688 C215.712,49.6000046 215.388003,50.3799968 214.74,51.028 C214.091997,51.6760032 213.312005,52 212.4,52 L207.504,52 C206.591995,52 205.812003,51.6760032 205.164,51.028 C204.515997,50.3799968 204.192,49.6000046 204.192,48.688 L204.192,4.912 C204.192,3.99999544 204.515997,3.22000324 205.164,2.572 C205.812003,1.92399676 206.591995,1.6 207.504,1.6 L212.4,1.6 C213.312005,1.6 214.091997,1.92399676 214.74,2.572 C215.388003,3.22000324 215.712,3.99999544 215.712,4.912 L215.712,23.56 L230.688,3.616 C231.168002,2.99199688 231.767996,2.5000018 232.488,2.14 C233.208004,1.7799982 233.951996,1.6 234.72,1.6 L239.472,1.6 C240.432005,1.6 241.199997,1.91199688 241.776,2.536 C242.352003,3.16000312 242.64,3.87999592 242.64,4.696 C242.64,5.4160036 242.400002,6.08799688 241.92,6.712 L227.088,24.856 L243.576,46.744 C244.056002,47.3680031 244.296,48.0399964 244.296,48.76 C244.296,49.5760041 243.984003,50.3199966 243.36,50.992 C242.735997,51.6640034 241.944005,52 240.984,52 L235.44,52 C234.671996,52 233.928004,51.8200018 233.208,51.46 C232.487996,51.0999982 231.888002,50.5840034 231.408,49.912 L215.712,28.024 L215.712,48.688 Z M284.088,12.832 C283.079995,12.4479981 282.000006,12.1360012 280.848,11.896 C279.695994,11.6559988 278.376007,11.536 276.888,11.536 C274.91999,11.536 273.084009,11.8599968 271.38,12.508 C269.675991,13.1560032 268.188006,14.1279935 266.916,15.424 C265.643994,16.7200065 264.636004,18.3159905 263.892,20.212 C263.147996,22.1080095 262.776,24.3039875 262.776,26.8 C262.776,29.0560113 263.147996,31.1079908 263.892,32.956 C264.636004,34.8040092 265.679993,36.4119932 267.024,37.78 C268.368007,39.1480068 269.975991,40.2039963 271.848,40.948 C273.720009,41.6920037 275.783989,42.064 278.04,42.064 C280.728013,42.064 283.343987,41.4160065 285.888,40.12 C286.560003,39.7839983 287.255996,39.616 287.976,39.616 C288.552003,39.616 289.091997,39.7479987 289.596,40.012 C290.100003,40.2760013 290.543998,40.7199969 290.928,41.344 L292.656,44.08 C292.992002,44.6560029 293.16,45.2559969 293.16,45.88 C293.16,46.4080026 293.028001,46.9479972 292.764,47.5 C292.499999,48.0520028 292.104003,48.5199981 291.576,48.904 C289.367989,50.4400077 287.100012,51.4839972 284.772,52.036 C282.443988,52.5880028 279.840014,52.864 276.96,52.864 C273.071981,52.864 269.508016,52.2400062 266.268,50.992 C263.027984,49.7439938 260.244012,47.9800114 257.916,45.7 C255.587988,43.4199886 253.776006,40.684016 252.48,37.492 C251.183994,34.299984 250.536,30.7360197 250.536,26.8 C250.536,23.199982 251.099994,19.8160158 252.228,16.648 C253.356006,13.4799842 255.023989,10.7200118 257.232,8.368 C259.440011,6.01598824 262.187984,4.15600684 265.476,2.788 C268.764016,1.41999316 272.567978,0.736 276.888,0.736 C279.432013,0.736 281.639991,0.9759976 283.512,1.456 C285.384009,1.9360024 287.255991,2.63199544 289.128,3.544 C289.656003,3.7840012 290.075998,4.16799736 290.388,4.696 C290.700002,5.22400264 290.856,5.77599712 290.856,6.352 C290.856,6.8320024 290.736001,7.35999712 290.496,7.936 L288.912,11.248 C288.623999,11.9200034 288.204003,12.4119984 287.652,12.724 C287.099997,13.0360016 286.488003,13.192 285.816,13.192 C285.287997,13.192 284.712003,13.0720012 284.088,12.832 L284.088,12.832 Z M339.864,52 C338.951995,52 338.172003,51.6760032 337.524,51.028 C336.875997,50.3799968 336.552,49.6000046 336.552,48.688 L336.552,20.68 L315.672,49.912 C314.759995,51.304007 313.512008,52 311.928,52 L307.464,52 C306.551995,52 305.772003,51.6760032 305.124,51.028 C304.475997,50.3799968 304.152,49.6000046 304.152,48.688 L304.152,4.912 C304.152,3.99999544 304.475997,3.22000324 305.124,2.572 C305.772003,1.92399676 306.551995,1.6 307.464,1.6 L312.36,1.6 C313.272005,1.6 314.051997,1.92399676 314.7,2.572 C315.348003,3.22000324 315.672,3.99999544 315.672,4.912 L315.672,32.92 L336.552,3.688 C337.464005,2.29599304 338.711992,1.6 340.296,1.6 L344.76,1.6 C345.672005,1.6 346.451997,1.92399676 347.1,2.572 C347.748003,3.22000324 348.072,3.99999544 348.072,4.912 L348.072,48.688 C348.072,49.6000046 347.748003,50.3799968 347.1,51.028 C346.451997,51.6760032 345.672005,52 344.76,52 L339.864,52 Z" id="КЛЕРКСИ" fill="#343434" sketch:type="MSShapeGroup"></path>
    </g>
</svg>