<?xml version="1.0" encoding="UTF-8" standalone="no"?>
<svg width="1664px" height="1664px" viewBox="0 0 1664 1664" version="1.1" xmlns="http://www.w3.org/2000/svg" xmlns:xlink="http://www.w3.org/1999/xlink" xmlns:sketch="http://www.bohemiancoding.com/sketch/ns">
    <!-- Generator: Sketch 3.3.3 (12072) - http://www.bohemiancoding.com/sketch -->
    <title>search-icon</title>
    <desc>Created with Sketch.</desc>
    <defs></defs>
    <g id="Page-1" stroke="none" stroke-width="1" fill="none" fill-rule="evenodd" sketch:type="MSPage">
        <path d="M1152,704 C1152,580.666667 1108.16667,475.166667 1020.5,387.5 C932.833333,299.833333 827.333333,256 704,256 C580.666667,256 475.166667,299.833333 387.5,387.5 C299.833333,475.166667 256,580.666667 256,704 C256,827.333333 299.833333,932.833333 387.5,1020.5 C475.166667,1108.16667 580.666667,1152 704,1152 C827.333333,1152 932.833333,1108.16667 1020.5,1020.5 C1108.16667,932.833333 1152,827.333333 1152,704 L1152,704 Z M1664,1536 C1664,1570.66667 1651.33333,1600.66667 1626,1626 C1600.66667,1651.33333 1570.66667,1664 1536,1664 C1500,1664 1470,1651.33333 1446,1626 L1103,1284 C983.666667,1366.66667 850.666667,1408 704,1408 C608.666667,1408 517.5,1389.5 430.5,1352.5 C343.5,1315.5 268.5,1265.5 205.5,1202.5 C142.5,1139.5 92.5,1064.5 55.5,977.5 C18.5,890.5 0,799.333333 0,704 C0,608.666667 18.5,517.5 55.5,430.5 C92.5,343.5 142.5,268.5 205.5,205.5 C268.5,142.5 343.5,92.5 430.5,55.5 C517.5,18.5 608.666667,0 704,0 C799.333333,0 890.5,18.5 977.5,55.5 C1064.5,92.5 1139.5,142.5 1202.5,205.5 C1265.5,268.5 1315.5,343.5 1352.5,430.5 C1389.5,517.5 1408,608.666667 1408,704 C1408,850.666667 1366.66667,983.666667 1284,1103 L1627,1446 C1651.66667,1470.66667 1664,1500.66667 1664,1536 L1664,1536 Z" id="Shape" fill="#E5E5E5" sketch:type="MSShapeGroup"></path>
    </g>
</svg>