<?xml version="1.0" encoding="UTF-8" standalone="no"?>
<svg width="50px" height="29px" viewBox="0 0 50 29" version="1.1" xmlns="http://www.w3.org/2000/svg" xmlns:xlink="http://www.w3.org/1999/xlink">
    <!-- Generator: Sketch 3.7.1 (28215) - http://www.bohemiancoding.com/sketch -->
    <title>Shape</title>
    <desc>Created with Sketch.</desc>
    <defs/>
    <g id="Page-1" stroke="none" stroke-width="1" fill="none" fill-rule="evenodd">
        <g id="скачанные-файлы-(3)" fill="#2774C5">
            <path d="M50,3.125 C50,3.97135417 49.6907552,4.70377604 49.0722656,5.32226562 L27.1972656,27.1972656 C26.578776,27.8157552 25.8463542,28.125 25,28.125 C24.1536458,28.125 23.421224,27.8157552 22.8027344,27.1972656 L0.927734375,5.32226562 C0.309244792,4.70377604 0,3.97135417 0,3.125 C0,2.27864583 0.309244792,1.54622396 0.927734375,0.927734375 C1.54622396,0.309244792 2.27864583,0 3.125,0 L46.875,0 C47.7213542,0 48.453776,0.309244792 49.0722656,0.927734375 C49.6907552,1.54622396 50,2.27864583 50,3.125 L50,3.125 Z" id="Shape"/>
        </g>
    </g>
</svg>